PathFileType	4	(X/Y/Z)	RUN4																																																													
DataRate	CameraRate	NumFrames	NumMarkers	Units	OrigDataRate	OrigDataStartFrame	OrigNumFrames																																																									
15	15	11	21	mm	15	505	577																																																									
Frame#	Time	SpineBase			SpineMid			Neck			Head			ShoulderLeft			ElbowLeft			WristLeft			HandLeft			ShoulderRight			ElbowRight			WristRight			HandRight			HipLeft			KneeLeft			AnkleLeft			FootLeft			HipRight			KneeRight			AnkleRight			FootRight			SpineShoulder		
		X1	Y1	Z1	X2	Y2	Z2	X3	Y3	Z3	X4	Y4	Z4	X5	Y5	Z5	X6	Y6	Z6	X7	Y7	Z7	X8	Y8	Z8	X9	Y9	Z9	X10	Y10	Z10	X11	Y11	Z11	X12	Y12	Z12	X13	Y13	Z13	X14	Y14	Z14	X15	Y15	Z15	X16	Y16	Z16	X17	Y17	Z17	X18	Y18	Z18	X19	Y19	Z19	X20	Y20	Z20	X21	Y21	Z21
																																																																
505	33.6	1032.677	739.8532	363.32432	1024.019	1061.92009	386.02925	1028.765	1373.8446	407.6773	1030.946	1513.1154	384.89582	1024.932	1251.167	208.74345	954.337	988.20133	123.84655	1026.726	796.089	59.26255	1051.14	717.7329	51.80245	1076.549	1238.6669	568.44175	1029.915	969.29265	639.28515	1119.95	747.8732	654.79145	1138.655	672.1549	640.70845	1057.962	745.8708	284.71107	1037.818	321.8237	188.94105	922.039	-100.408	164.92295	993.795	-160.929	177.37785	1076.303	742.9268	440.47965	969.089	314.917	446.42705	928.637	-37.03	436.92665	1004.826	-128.645	412.19244	1025.341	1297.2506	402.42097
506	33.66666667	1040.774	739.9947	364.07527	1029.593	1061.47072	387.08556	1032.311	1372.9616	408.84979	1039.558	1511.7324	385.95283	1028.054	1249.6743	211.05115	953.591	987.18837	126.67245	1014.088	792.1959	59.00145	1039.293	715.3397	44.86755	1081.184	1237.8734	570.84245	1032.389	968.55766	641.90125	1119.554	746.3931	656.01985	1143.879	671.1462	643.63535	1065.038	747.2901	284.92722	1061.653	334.9482	184.78645	939.451	-81.288	141.07185	995.702	-158.464	177.22455	1085.57	741.7067	441.75685	973.81	318.2413	447.38455	928.187	-40.34	436.38065	1005.659	-131.465	411.27763	1029.342	1296.4613	403.581
507	33.73333333	1048.308	741.1709	363.80831	1038.034	1061.64677	388.09295	1041.462	1371.8754	411.25053	1048.956	1511.0244	385.10371	1029.327	1250.1601	211.35455	952.532	987.34949	128.33685	1006.773	783.1657	54.35285	1029.641	707.7843	34.70855	1086.702	1237.4124	571.76875	1034.992	968.74953	643.46565	1120.714	745.1037	657.79385	1148.917	672.117	648.90765	1071.931	749.4951	284.57558	1082.589	344.4031	181.13805	953.146	-78.761	135.14515	1008.616	-153.477	173.28945	1093.749	741.8929	441.52515	976.594	319.8561	447.47285	927.719	-40.972	435.83235	1004.726	-131.064	405.00538	1038.339	1295.7171	405.62746
508	33.8	1054.9	742.4909	363.52283	1043.917	1062.63015	387.92741	1046.399	1372.4789	411.15879	1056.636	1510.9175	383.49357	1031.539	1250.8416	211.14505	952.001	988.82878	128.81755	998.22	777.8848	46.37435	1018.524	699.5076	23.66025	1093.783	1238.2653	571.23765	1040.439	969.01501	645.89085	1123.036	743.9924	659.98765	1154.898	672.7523	653.43315	1078.665	751.4773	284.17304	1103.292	354.8332	177.21045	978.578	-81.61	131.71605	1014.149	-151.177	176.39035	1100.158	742.6393	441.32495	979.976	321.8762	447.40665	926.325	-44.727	434.17605	1006.204	-133.65	403.69951	1043.53	1296.4177	405.52327
509	33.86666667	1062.949	744.4407	362.01752	1052.336	1064.53059	386.46108	1055.031	1374.2164	409.72683	1064.523	1511.8121	379.80524	1038.07	1251.9786	210.10675	952.516	992.08915	128.50305	991.272	775.5459	36.91275	1011.621	696.494	10.83895	1102.406	1240.4086	570.08715	1046.07	970.71595	647.41395	1128.966	744.5724	664.39005	1161.921	675.7245	657.95675	1086.341	753.7267	282.52975	1121.239	360.1679	173.13965	1042.479	-36.659	107.51815	1037.754	-119.167	167.63485	1108.604	744.3009	439.98915	986	324.6572	446.47895	931.776	-32.175	438.66675	1002.976	-123.842	404.29849	1052.127	1298.2094	404.08419
510	33.93333333	1069.941	745.554	360.49737	1060.978	1065.63927	384.49132	1065.488	1375.2309	407.2486	1076.999	1511.4099	373.4601	1047.22	1252.7913	207.79375	954.371	995.73528	126.97455	987.48	774.1378	29.52045	1004.902	696.7791	-0.00055	1114.179	1242.9653	566.23435	1058.272	973.95897	648.99195	1138.19	744.201	669.18905	1171.21	677.0122	661.34965	1092.485	754.7107	280.96252	1139.66	368.3064	167.87985	1087.402	-16.189	96.17165	1070.999	-87.105	166.07815	1116.545	745.5866	438.56895	991.449	325.7476	445.69315	922.823	-61.835	421.66115	1010.334	-138.936	395.52351	1062.116	1299.2602	401.73852
511	34	1078.426	746.5004	357.62338	1071.537	1066.55626	379.68234	1078.281	1376.032	400.2304	1088.536	1512.3763	366.52676	1056.666	1252.599	203.14195	957.302	998.70227	121.79095	985.469	774.2039	23.09115	1002.838	697.353	-8.61735	1123.639	1244.5056	561.22015	1067.324	976.83648	649.18445	1149.373	746.0378	673.48145	1180.436	678.3168	665.05505	1100.83	755.5011	277.90495	1154.191	373.8659	164.32155	1133.166	26.0209	91.73925	1125.712	-67.404	124.02115	1125.192	746.7228	435.96025	995.9	325.1777	444.65485	925.612	-57.266	425.01165	985.255	-140.984	370.00938	1074.339	1300.1033	395.29262
512	34.06666667	1088.173	747.152	353.41626	1081.822	1067.21184	374.64635	1088.82	1376.6431	394.65002	1100.329	1512.6786	357.82425	1070.33	1251.8771	196.48305	964.614	1001.46908	114.02465	985.609	774.8114	16.76015	1005.908	695.4983	-17.05465	1133.637	1246.5392	555.27545	1078.107	980.05558	647.48685	1159.66	748.2739	675.20015	1192.537	681.1108	667.40495	1110.917	756.1219	273.53741	1172.107	380.4935	160.72325	1175.697	36.4953	82.52265	1296.439	11.705	58.22585	1134.655	747.4456	432.03295	1004.724	328.5425	442.08975	925.928	-56.803	424.94805	985.221	-140.849	370.01339	1084.84	1300.7334	389.81781
513	34.13333333	1099.095	746.6617	348.1488	1092.968	1066.84287	368.01919	1100.265	1376.3538	386.71723	1113.718	1510.7498	346.52147	1081.939	1249.3876	188.65965	974.263	1000.76361	104.00195	989.508	771.8927	6.09585	1012.842	691.3917	-22.58605	1145.852	1247.4028	546.40825	1091.974	982.50392	644.38525	1173.662	752.785	677.65895	1206.534	679.8708	668.13835	1120.974	755.1684	268.40569	1186.985	385.2069	157.86185	1213.392	40.2948	72.11185	1335.863	19.9257	48.02235	1146.564	747.5402	426.79675	1014.07	335.8032	438.60775	942.475	-22.077	439.60525	982.47	-112.77	384.56466	1096.203	1300.4317	382.20333
514	34.2	1109.377	743.9776	342.74288	1105.215	1064.29055	359.8625	1114.734	1373.9659	375.54856	1128.759	1508.4743	334.66234	1094.597	1246.2627	178.01315	986.278	997.97389	93.45345	998.731	766.8883	-2.25575	1026.061	687.0624	-27.71175	1155.838	1247.2118	538.29695	1107.802	986.59262	637.87915	1185.682	754.6274	676.60985	1220.252	680.855	666.90975	1132.351	751.96	262.53289	1201.141	384.9625	154.15225	1246.073	50.0151	64.39145	1369.857	32.5334	41.46775	1155.806	745.4738	422.01855	1020.494	340.7642	435.02645	943.799	-15.195	439.53995	999.647	-109.085	397.4264	1110.094	1298.0044	371.80212
515	34.26666667	1121.805	740.5269	334.69836	1116.924	1061.18258	350.94646	1125.515	1371.1477	366.28975	1143.955	1504.3551	320.003702	1109.598	1241.5515	165.78265	1003.447	992.05392	81.59525	1011.461	767.4584	-7.54535	1040.524	688.6937	-31.31945	1166.499	1245.5503	527.64975	1115.238	988.45587	633.93365	1203.658	755.0003	674.50145	1236.926	683.234	664.49595	1145.916	747.7887	253.77541	1213.742	383.2805	151.38785	1280.612	-28.807	39.94515	1404.609	-43.236	18.95855	1167.133	742.89	414.94119	1031.181	348.6893	432.27375	927.586	-43.912	424.04695	982.977	-133.354	372.54424	1121.124	1295.1217	362.5759
